#!OML:ASF X:\für Bonn\!DataBase\2005_08_10_Bjorn_Final\c3d\bjorn.ASF
:FULLY-SPECIFIED
:DEGREES
500
root -1.6585 1.51135 21.9015 -451.927 -171.358 17.9303
lowerback 5.37859 1.90755 -11.6524
upperback 11.7033 1.56078 -5.41151
thorax 9.39278 -0.652065 0.555463
lowerneck 6.06383 -5.74471 0.259634
upperneck 25.2489 -11.5812 2.17297
head 6.92748 -7.01649 0.00404394
rclavicle 9.54166e-015 1.19271e-014
rhumerus -172.057 -177.613 119.27
rradius 39.7959
rwrist -14.1943
rhand -9.14874 10.0673
rfingers 7.12502
rthumb 16.8033 -19.2256
lclavicle 9.54166e-015 1.19271e-014
lhumerus -346.521 -32.2011 -297.774
lradius 48.418
lwrist -19.2925
lhand -52.8124 -26.6184
lfingers 7.12502
lthumb -25.286 1.72572
rfemur -193.027 -164.51 181.246
rtibia 38.4426
rfoot 20.9948 6.30912
rtoes -17.1385
lfemur -44.185 10.2711 -24.1401
ltibia 96.9306
lfoot 25.738 9.92064
ltoes -2.41006
501
root -1.66177 1.50974 21.9043 -451.726 -171.294 17.6662
lowerback 5.13759 1.85452 -11.5641
upperback 11.3016 1.54704 -5.64225
thorax 9.07988 -0.588539 0.283265
lowerneck 5.23467 -5.84301 0.523309
upperneck 24.864 -11.3773 1.71421
head 6.88575 -6.81616 -0.190927
rclavicle 4.77083e-014 -5.80451e-014
rhumerus -172.108 -178.468 120.078
rradius 41.1022
rwrist -14.3017
rhand -9.06288 10.0887
rfingers 7.12502
rthumb 16.8859 -19.1971
lclavicle 4.77083e-014 -5.80451e-014
lhumerus -346.236 -33.0572 -299.167
lradius 49.8486
lwrist -18.9416
lhand -53.1113 -26.5514
lfingers 7.12502
lthumb -25.5724 1.75193
rfemur -192.72 -164.55 181.33
rtibia 37.3395
rfoot 20.7452 6.48248
rtoes -17.4839
lfemur -44.364 10.5569 -24.2236
ltibia 96.9262
lfoot 25.734 9.9345
ltoes -2.22063
502
root -1.66436 1.50942 21.9063 -451.493 -171.249 17.3907
lowerback 4.84955 1.78825 -11.5017
upperback 10.8971 1.52338 -5.82571
thorax 8.79392 -0.535244 0.0759875
lowerneck 4.53927 -5.92627 0.702145
upperneck 24.3658 -11.1629 1.2944
head 6.79371 -6.6208 -0.34773
rclavicle -3.18055e-015 -6.20208e-014
rhumerus -172.085 -179.326 120.976
rradius 42.3642
rwrist -14.2594
rhand -8.94229 10.0344
rfingers 7.12502
rthumb 17.002 -19.2415
lclavicle -3.18055e-015 -6.20208e-014
lhumerus -345.933 -33.8093 -300.512
lradius 51.2188
lwrist -18.5468
lhand -53.3654 -26.8389
lfingers 7.12502
lthumb -25.8158 1.42927
rfemur -192.467 -164.573 181.448
rtibia 36.2988
rfoot 20.5226 6.62196
rtoes -17.816
lfemur -44.5613 10.8256 -24.2981
ltibia 96.922
lfoot 25.6981 9.99761
ltoes -1.94008
503
root -1.66616 1.50828 21.9088 -451.243 -171.188 17.1067
lowerback 4.56149 1.71562 -11.477
upperback 10.4787 1.48883 -5.98438
thorax 8.49489 -0.491151 -0.0840235
lowerneck 4.05216 -5.96916 0.825342
upperneck 23.66 -10.9128 0.999725
head 6.61175 -6.40955 -0.436421
rclavicle 6.36111e-014 4.05521e-014
rhumerus -172.013 -180.198 121.891
rradius 43.5836
rwrist -14.101
rhand -8.78551 9.8383
rfingers 7.12502
rthumb 17.1529 -19.4246
lclavicle 6.36111e-014 4.05521e-014
lhumerus -345.674 -34.4359 -301.766
lradius 52.5338
lwrist -18.2877
lhand -53.6 -27.1165
lfingers 7.12502
lthumb -26.0404 1.11884
rfemur -192.262 -164.551 181.558
rtibia 35.3287
rfoot 20.289 6.81528
rtoes -18.2776
lfemur -44.799 11.1069 -24.3934
ltibia 96.9257
lfoot 25.7021 9.98947
ltoes -1.90737
504
root -1.66746 1.50756 21.9114 -451.003 -171.143 16.8195
lowerback 4.29235 1.65032 -11.4322
upperback 10.0635 1.45648 -6.14145
thorax 8.19032 -0.447257 -0.253917
lowerneck 3.71932 -5.9725 0.940501
upperneck 22.8074 -10.6463 0.85202
head 6.36893 -6.18882 -0.465478
rclavicle 1.27222e-014 -7.63333e-014
rhumerus -171.93 -180.934 122.76
rradius 44.7662
rwrist -13.8728
rhand -8.54063 9.58876
rfingers 7.12502
rthumb 17.3886 -19.6534
lclavicle 1.27222e-014 -7.63333e-014
lhumerus -345.448 -35.0029 -303.035
lradius 53.8498
lwrist -18.0448
lhand -53.7478 -27.4696
lfingers 7.12502
lthumb -26.1819 0.744802
rfemur -192.063 -164.506 181.678
rtibia 34.419
rfoot 20.0272 6.97242
rtoes -18.4362
lfemur -45.0191 11.3773 -24.4796
ltibia 96.9212
lfoot 25.7075 9.94597
ltoes -1.96678
505
root -1.66769 1.50625 21.913 -450.761 -171.081 16.5491
lowerback 4.00117 1.56573 -11.4532
upperback 9.6745 1.40255 -6.25031
thorax 7.93108 -0.42447 -0.339001
lowerneck 3.38688 -5.94057 0.914641
upperneck 21.9512 -10.3653 0.80999
head 6.14121 -5.96889 -0.440372
rclavicle -5.40694e-014 2.38542e-014
rhumerus -171.736 -181.649 123.653
rradius 45.8977
rwrist -13.5812
rhand -8.37806 9.30746
rfingers 7.12502
rthumb 17.545 -19.9208
lclavicle -5.40694e-014 2.38542e-014
lhumerus -345.206 -35.3703 -304.179
lradius 55.0389
lwrist -17.9609
lhand -53.8615 -27.5737
lfingers 7.12502
lthumb -26.2907 0.624501
rfemur -191.887 -164.438 181.779
rtibia 33.5659
rfoot 19.77 7.01574
rtoes -18.3719
lfemur -45.2544 11.5845 -24.5791
ltibia 96.9267
lfoot 25.6596 10.0711
ltoes -1.58999
506
root -1.66735 1.50578 21.9164 -450.49 -171 16.262
lowerback 3.68314 1.48307 -11.4972
upperback 9.26793 1.35285 -6.36127
thorax 7.66927 -0.401261 -0.413684
lowerneck 3.00325 -5.8812 0.84724
upperneck 21.2461 -10.0886 0.793807
head 5.9768 -5.76308 -0.410528
rclavicle -4.77083e-014 7.31528e-014
rhumerus -171.594 -182.345 124.526
rradius 47.0618
rwrist -13.4357
rhand -8.31999 9.12475
rfingers 7.12502
rthumb 17.6009 -20.0986
lclavicle -4.77083e-014 7.31528e-014
lhumerus -345.046 -35.668 -305.273
lradius 56.1977
lwrist -18.0167
lhand -54.0025 -27.465
lfingers 7.12502
lthumb -26.4257 0.712986
rfemur -191.764 -164.291 181.868
rtibia 32.7624
rfoot 19.5082 7.16941
rtoes -18.529
lfemur -45.5056 11.7902 -24.7178
ltibia 96.9147
lfoot 25.6651 10.0867
ltoes -1.52713
